<svg aria-hidden="true" style="position: absolute; width: 0; height: 0; overflow: hidden;" version="1.1" xmlns="http://www.w3.org/2000/svg" xmlns:xlink="http://www.w3.org/1999/xlink">
    <defs>
        <symbol id="icon-arrow-back" viewBox="0 0 32 32">
            <path d="M28 14.667h-19.448l7.057-7.057-1.885-1.885-10.276 10.276 10.276 10.276 1.885-1.885-7.057-7.057h19.448v-2.667z"></path>
        </symbol>
        <symbol id="icon-chevron-down" viewBox="0 0 32 32">
            <path d="M21.724 11.057l-5.724 5.724-5.724-5.724-1.885 1.885 7.609 7.609 7.609-7.609-1.885-1.885z"></path>
        </symbol>
        <symbol id="icon-chevron-left" viewBox="0 0 32 32">
            <path d="M17.724 8.391l-7.609 7.609 7.609 7.609 1.885-1.885-5.724-5.724 5.724-5.724-1.885-1.885z"></path>
        </symbol>
        <symbol id="icon-chevron-right" viewBox="0 0 32 32">
            <path d="M12.943 22.599l7.609-7.609-7.609-7.609-1.885 1.885 5.724 5.724-5.724 5.724 1.885 1.885z"></path>
        </symbol>
        <symbol id="icon-chevron-up" viewBox="0 0 32 32">
            <path d="M8.391 19.057l1.885 1.885 5.724-5.724 5.724 5.724 1.885-1.885-7.609-7.609-7.609 7.609z"></path>
        </symbol>
        <symbol id="icon-down-arrow-alt" viewBox="0 0 32 32">
            <path d="M24.943 16.943l-1.885-1.885-5.724 5.724v-12.781h-2.667v12.781l-5.724-5.724-1.885 1.885 8.943 8.943 8.943-8.943z"></path>
        </symbol>
        <symbol id="icon-Facebook" viewBox="0 0 32 32">
            <path d="M29.333 16.405c0-7.409-5.969-13.415-13.333-13.415s-13.333 6.006-13.333 13.415c0 6.696 4.876 12.245 11.25 13.252v-9.374h-3.385v-3.878h3.385v-2.955c0-3.362 1.991-5.219 5.036-5.219 1.459 0 2.985 0.262 2.985 0.262v3.301h-1.681c-1.656 0-2.173 1.034-2.173 2.095v2.516h3.698l-0.591 3.878h-3.107v9.374c6.374-1.006 11.25-6.556 11.25-13.252z"></path>
        </symbol>
        <symbol id="icon-Instagram" viewBox="0 0 32 32">
            <path d="M15.998 6.161c3.206 0 3.585 0.014 4.846 0.071 1.172 0.052 1.804 0.248 2.226 0.412 0.558 0.216 0.961 0.478 1.378 0.895 0.422 0.422 0.679 0.82 0.9 1.378 0.164 0.422 0.361 1.059 0.412 2.226 0.056 1.266 0.071 1.645 0.071 4.847s-0.014 3.585-0.071 4.847c-0.052 1.172-0.248 1.804-0.412 2.227-0.216 0.558-0.478 0.961-0.895 1.377-0.422 0.422-0.82 0.679-1.378 0.9-0.422 0.164-1.060 0.361-2.226 0.412-1.266 0.056-1.645 0.071-4.847 0.071s-3.585-0.014-4.847-0.071c-1.172-0.052-1.804-0.248-2.226-0.412-0.558-0.216-0.961-0.478-1.378-0.895-0.422-0.422-0.679-0.82-0.9-1.378-0.164-0.422-0.361-1.060-0.412-2.226-0.056-1.266-0.071-1.645-0.071-4.847s0.014-3.585 0.071-4.847c0.052-1.172 0.248-1.804 0.412-2.226 0.216-0.558 0.478-0.961 0.895-1.378 0.422-0.422 0.82-0.679 1.378-0.9 0.422-0.164 1.059-0.361 2.226-0.412 1.261-0.056 1.641-0.071 4.847-0.071h0.001zM15.998 4.001c-3.258 0-3.665 0.014-4.945 0.071-1.275 0.056-2.151 0.262-2.91 0.558-0.792 0.309-1.462 0.717-2.127 1.387-0.67 0.666-1.078 1.336-1.387 2.123-0.295 0.764-0.502 1.636-0.558 2.91-0.056 1.285-0.071 1.692-0.071 4.949s0.014 3.665 0.071 4.945c0.056 1.275 0.262 2.151 0.558 2.91 0.31 0.792 0.717 1.462 1.387 2.127 0.665 0.665 1.336 1.078 2.123 1.383 0.764 0.295 1.636 0.502 2.91 0.558 1.279 0.056 1.687 0.071 4.945 0.071s3.666-0.014 4.945-0.071c1.275-0.056 2.151-0.262 2.91-0.558 0.787-0.305 1.458-0.717 2.123-1.383s1.078-1.336 1.383-2.123c0.295-0.764 0.502-1.635 0.558-2.91 0.056-1.279 0.071-1.687 0.071-4.945s-0.014-3.665-0.071-4.945c-0.056-1.275-0.262-2.151-0.558-2.91-0.295-0.797-0.703-1.467-1.373-2.133-0.665-0.665-1.336-1.078-2.123-1.383-0.764-0.295-1.635-0.502-2.91-0.558-1.284-0.061-1.692-0.075-4.949-0.075l-0.001 0.001z"></path>
            <path d="M15.998 9.836c-3.402 0-6.163 2.76-6.163 6.163s2.76 6.163 6.163 6.163c3.403 0 6.163-2.76 6.163-6.163s-2.76-6.163-6.163-6.163zM15.998 19.997c-2.208 0-3.998-1.79-3.998-3.998s1.79-3.998 3.998-3.998c2.208 0 3.998 1.79 3.998 3.998s-1.79 3.998-3.998 3.998z"></path>
            <path d="M23.843 9.592c0 0.795-0.644 1.439-1.439 1.439s-1.439-0.644-1.439-1.439 0.644-1.439 1.439-1.439c0.795 0 1.439 0.644 1.439 1.439z"></path>
        </symbol>
        <symbol id="icon-left-arrow-alt" viewBox="0 0 32 32">
            <path d="M16.943 23.057l-5.724-5.724h12.781v-2.667h-12.781l5.724-5.724-1.885-1.885-8.943 8.943 8.943 8.943 1.885-1.885z"></path>
        </symbol>
        <symbol id="icon-menu" viewBox="0 0 32 32">
            <path d="M5.333 8h21.333v2.667h-21.333v-2.667zM5.333 14.667h21.333v2.667h-21.333v-2.667zM5.333 21.333h21.333v2.667h-21.333v-2.667z"></path>
        </symbol>
        <symbol id="icon-minus" viewBox="0 0 32 32">
            <path d="M6.667 14.667h18.667v2.667h-18.667v-2.667z"></path>
        </symbol>
        <symbol id="icon-plus" viewBox="0 0 32 32">
            <path d="M25.333 14.667h-8v-8h-2.667v8h-8v2.667h8v8h2.667v-8h8v-2.667z"></path>
        </symbol>
        <symbol id="icon-right-arrow-alt" viewBox="0 0 32 32">
            <path d="M15.057 23.057l1.885 1.885 8.943-8.943-8.943-8.943-1.885 1.885 5.724 5.724h-12.781v2.667h12.781l-5.724 5.724z"></path>
        </symbol>
        <symbol id="icon-star" viewBox="0 0 32 32">
            <path d="M8.688 19.097l-1.987 8.603c-0.062 0.261-0.043 0.533 0.053 0.783s0.265 0.465 0.485 0.617c0.22 0.152 0.481 0.235 0.749 0.236s0.53-0.078 0.752-0.227l7.26-4.84 7.26 4.84c0.227 0.151 0.495 0.228 0.768 0.222s0.537-0.095 0.757-0.256c0.22-0.161 0.386-0.385 0.475-0.642s0.097-0.536 0.023-0.799l-2.439-8.533 6.048-5.443c0.194-0.174 0.332-0.402 0.398-0.654s0.056-0.518-0.027-0.765-0.238-0.464-0.444-0.624c-0.206-0.16-0.454-0.256-0.714-0.277l-7.601-0.605-3.289-7.281c-0.105-0.234-0.275-0.434-0.491-0.573s-0.467-0.214-0.724-0.214c-0.257 0-0.508 0.074-0.724 0.214s-0.386 0.339-0.491 0.573l-3.289 7.281-7.601 0.604c-0.255 0.020-0.5 0.114-0.703 0.269s-0.358 0.366-0.445 0.607c-0.087 0.241-0.103 0.502-0.046 0.752s0.185 0.478 0.369 0.656l5.619 5.476zM12.492 13.329c0.238-0.019 0.467-0.101 0.662-0.239s0.35-0.325 0.448-0.543l2.399-5.308 2.399 5.308c0.098 0.218 0.252 0.405 0.448 0.543s0.424 0.22 0.662 0.239l5.296 0.42-4.361 3.925c-0.379 0.341-0.529 0.867-0.391 1.357l1.671 5.847-4.981-3.321c-0.219-0.147-0.476-0.225-0.739-0.225s-0.521 0.078-0.739 0.225l-5.205 3.471 1.4-6.061c0.051-0.223 0.044-0.455-0.020-0.675s-0.184-0.419-0.348-0.579l-4.051-3.949 5.453-0.435z"></path>
        </symbol>
        <symbol id="icon-up-arrow-alt" viewBox="0 0 32 32">
            <path d="M14.667 11.219v12.781h2.667v-12.781l5.724 5.724 1.885-1.885-8.943-8.943-8.943 8.943 1.885 1.885 5.724-5.724z"></path>
        </symbol>
        <symbol id="icon-x" viewBox="0 0 32 32">
            <path d="M21.589 8.459l-5.657 5.656-5.656-5.656-1.885 1.885 5.656 5.656-5.656 5.656 1.885 1.885 5.656-5.656 5.657 5.656 1.885-1.885-5.656-5.656 5.656-5.656-1.885-1.885z"></path>
        </symbol>
        <symbol id="icon-Youtube" viewBox="0 0 32 32">
            <path d="M28.791 9.604c-0.152-0.563-0.449-1.077-0.861-1.49s-0.925-0.711-1.489-0.864c-2.088-0.573-10.441-0.583-10.441-0.583s-8.352-0.009-10.441 0.539c-0.563 0.16-1.075 0.462-1.487 0.878s-0.711 0.929-0.867 1.493c-0.551 2.088-0.556 6.419-0.556 6.419s-0.005 4.352 0.541 6.419c0.307 1.143 1.207 2.045 2.351 2.353 2.109 0.573 10.44 0.583 10.44 0.583s8.353 0.009 10.441-0.537c0.563-0.153 1.077-0.45 1.49-0.862s0.712-0.925 0.866-1.488c0.552-2.087 0.556-6.416 0.556-6.416s0.027-4.353-0.543-6.441zM13.328 20.007l0.007-8 6.943 4.007-6.949 3.993z"></path>
        </symbol>
        <symbol id="icon-Company-Logo" viewBox="0 0 138 32">
            <path d="M13.878 0.53c8.419-0.786 15.878 5.407 16.655 13.827s-5.423 15.872-13.844 16.641c-8.408 0.767-15.848-5.422-16.624-13.829s5.406-15.854 13.812-16.638zM16.931 29.378c7.516-0.903 12.875-7.729 11.968-15.244s-7.737-12.87-15.251-11.959c-7.508 0.911-12.857 7.733-11.951 15.241 0.906 7.509 7.725 12.862 15.234 11.962z"></path>
            <path d="M21.288 7.801l1.761-0.012c0.034 5.082 0.037 10.165 0.008 15.248l-1.821 0.023-0.003-9.55-0.008-2.615c-1.017 1.93-2.172 3.786-3.272 5.669-0.697 1.194-1.345 2.563-2.208 3.637-0.206 0.075-0.429 0.081-0.644 0.032-0.070-0.016-0.217-0.071-0.27-0.114-0.465-0.371-4.842-8.060-5.541-9.226 0.179 1.383 0.067 2.891 0.066 4.287l-0.005 7.842-1.862 0.007c0.058-5.074-0.033-10.152 0.015-15.228l2.028 0.011c0.902 1.612 1.869 3.19 2.804 4.783 0.994 1.693 1.961 3.406 3.017 5.061 1.074-1.961 2.275-3.862 3.429-5.778 0.818-1.357 1.591-2.786 2.507-4.078z"></path>
            <path d="M114.522 11.422c0.359-0.024 0.728-0.034 1.088-0.027 1.343 0.024 2.714 0.742 3.633 1.694 1.145 1.186 1.677 2.84 1.639 4.471-0.038 1.66-0.661 3.238-1.883 4.377-1.083 1.009-2.471 1.549-3.955 1.493-1.699-0.064-2.826-0.78-3.966-1.996-0.044 0.696-0.031 1.401-0.038 2.099 0.007 1.386 0.006 2.772-0.006 4.159-0.646 0.064-1.298 0.058-1.943-0.018 0.105-2.146 0.012-4.344 0.013-6.495 0-3.201 0.051-6.41-0.021-9.61l1.923-0.008c-0.038 0.714-0.029 1.435-0.039 2.151 1.042-1.3 1.91-1.927 3.555-2.289zM115.355 21.713c1.195-0.224 2.121-0.712 2.823-1.744 0.686-1.027 0.933-2.286 0.683-3.495-0.214-1.078-0.852-2.096-1.791-2.685-0.739-0.464-1.538-0.591-2.391-0.567-1.185 0.224-2.145 0.646-2.855 1.679-0.669 0.973-0.957 2.358-0.731 3.515 0.214 1.111 0.873 2.086 1.824 2.698 0.759 0.477 1.559 0.614 2.439 0.599z"></path>
            <path d="M78.645 6.601c0.313 0.322 0.411 1.172 0.597 1.627-2.018 0.847-4.943 0.673-6.565 2.222-0.97 0.927-1.202 2.209-1.222 3.487 0.868-1.072 1.82-1.941 3.243-2.179 1.438-0.241 2.963 0.038 4.142 0.916 1.267 0.943 1.973 2.311 2.185 3.86 0.243 1.78-0.2 3.459-1.293 4.881-0.791 0.878-1.712 1.527-2.871 1.811-1.468 0.36-3.143 0.173-4.437-0.629-1.475-0.916-2.324-2.428-2.693-4.092-0.55-2.486-0.442-6.2 0.991-8.406 1.263-1.946 3.171-2.332 5.291-2.836 0.88-0.209 1.748-0.467 2.631-0.662zM75.291 21.724c1.249-0.185 2.179-0.484 2.955-1.558 0.762-1.052 1.008-2.381 0.772-3.646-0.191-1.021-0.728-1.954-1.604-2.532-0.537-0.355-1.159-0.558-1.802-0.589-1.216 0.136-2.216 0.388-3.025 1.39-0.759 0.941-1.084 2.213-0.916 3.406 0.153 1.088 0.748 2.135 1.641 2.784 0.605 0.439 1.253 0.631 1.98 0.744z"></path>
            <path d="M51.308 7.375c0.71-0.071 1.449-0.037 2.164-0.042-0.096 5.23 0.019 10.474-0.011 15.707l-1.883-0.019 0.003-9.251c-0.005-1.060-0.027-2.122 0.038-3.181-1.736 3.206-3.302 6.552-5.203 9.66l-1.224-0.007c-1.872-3.070-3.431-6.378-5.162-9.532 0.068 1.447 0.022 2.915 0.023 4.364l0.004 7.966c-0.628-0.016-1.253 0.025-1.882-0.005l0.001-9.529c0.001-2.048-0.039-4.11 0.073-6.155l2.095 0.001c0.596 1.021 1.102 2.116 1.643 3.168 1.255 2.44 2.498 4.907 3.852 7.294 1.99-3.375 3.566-7.010 5.469-10.438z"></path>
            <path d="M60.994 11.426c0.287-0.015 0.575-0.026 0.863-0.033 1.508-0.025 3.010 0.387 4.097 1.479 1.454 1.461 1.599 3.303 1.599 5.25-3.139 0.040-6.281-0.003-9.421 0.011 0.097 0.518 0.194 1.014 0.441 1.487 0.491 0.946 1.342 1.654 2.362 1.963 1.22 0.37 2.448 0.153 3.545-0.452 0.368-0.25 0.705-0.543 1.048-0.826 0.493 0.281 0.991 0.516 1.512 0.741-0.775 1.045-1.773 1.806-3.037 2.153-1.618 0.443-3.59 0.269-5.047-0.588-1.278-0.754-2.195-1.994-2.54-3.436-0.431-1.735-0.19-3.632 0.751-5.157 0.907-1.471 2.18-2.197 3.827-2.591zM58.153 16.657c1.555-0.012 3.109-0.017 4.664-0.013l2.906 0.002c-0.283-1.193-0.567-2.298-1.677-2.996-0.812-0.511-1.796-0.589-2.731-0.511-1.009 0.233-1.86 0.692-2.436 1.582-0.39 0.602-0.563 1.249-0.726 1.937z"></path>
            <path d="M100.037 11.423c0.282-0.014 0.564-0.023 0.846-0.028 1.504-0.016 3.007 0.43 4.080 1.527 1.412 1.444 1.542 3.287 1.536 5.194-3.125 0.047-6.258 0.010-9.385 0.017 0.042 0.57 0.142 1.061 0.408 1.574 0.493 0.95 1.31 1.578 2.33 1.877 1.365 0.401 2.607 0.105 3.813-0.565 0.295-0.203 0.556-0.451 0.824-0.688 0.496 0.267 0.998 0.483 1.52 0.691-0.817 1.074-1.834 1.853-3.155 2.188-1.642 0.416-3.527 0.257-4.992-0.627-1.301-0.786-2.193-2.080-2.535-3.554-0.39-1.684-0.118-3.62 0.823-5.080s2.228-2.166 3.887-2.525zM97.097 16.653c1.488-0.004 2.978-0.024 4.466-0.009l3.154-0.002c-0.327-1.226-0.67-2.421-1.856-3.095-0.735-0.418-1.63-0.489-2.459-0.406-0.984 0.163-1.816 0.533-2.428 1.356-0.484 0.652-0.691 1.38-0.877 2.156z"></path>
            <path d="M132.498 11.589c1.903-0.089 3.835-0.025 5.742-0.018-0.097 3.812-0.010 7.649-0.012 11.465l-1.962-0.021-0.001-3.917c-0.937-0.006-2.171-0.189-3.064 0.024-0.279 0.066-0.329 0.207-0.485 0.424-0.662 1.174-1.398 2.307-2.062 3.482-0.741 0.016-1.484 0.019-2.225 0.006 0.726-1.362 1.711-3.096 2.671-4.276-0.115-0.056-0.228-0.115-0.339-0.175-0.837-0.462-1.478-1.206-1.723-2.139-0.256-0.972-0.116-2.082 0.403-2.945 0.701-1.165 1.8-1.613 3.057-1.909zM134.509 17.453c0.579-0.005 1.17 0.013 1.747-0.029-0.008-1.356-0.004-2.711 0.010-4.067-1.149-0.004-2.316-0.035-3.465 0.028-0.724 0.227-1.29 0.472-1.682 1.171-0.259 0.464-0.329 1.077-0.154 1.582 0.169 0.488 0.562 0.831 1.023 1.040 0.78 0.352 1.686 0.283 2.52 0.276z"></path>
            <path d="M85.008 11.694c2.484-0.090 4.989-0.031 7.476-0.036l-0.012 11.376c-0.619-0.009-1.241-0.035-1.856 0.049l-0.009-9.636-1.054 0.043c-0.941-0.046-1.902 0.015-2.845 0.038-0.026 2.293-0.035 7.047-1.641 8.743-0.801 0.846-1.706 0.933-2.8 0.942-0.008-0.598-0.040-1.189-0.083-1.785 0.286-0.026 0.588-0.046 0.866-0.116 1.729-0.436 1.759-6.149 1.802-7.589 0.017-0.561-0.107-1.57 0.155-2.027z"></path>
            <path d="M125.296 11.609l0.254-0.015c0.030 0.041 0.074 0.076 0.092 0.124 0.085 0.224-0.002 10.161-0.002 11.31l-1.666 0.011-0.123-0.024c-0.267-0.482 0.001-9.951-0.083-11.383 0.509 0.006 1.018-0.011 1.526-0.023z"></path>
            <path d="M123.735 7.319l1.916-0.006c-0.020 0.68-0.005 1.361 0.005 2.041l-1.973 0.015c0.029-0.683 0.046-1.366 0.052-2.050z"></path>
        </symbol>
        <!-- <symbol id="icon-frame" viewBox="0 0 145 32">
<path d="M15.26 0.126c8.751-0.817 16.506 5.621 17.313 14.373s-5.638 16.5-14.391 17.299c-8.741 0.798-16.475-5.636-17.281-14.376s5.62-16.48 14.359-17.296zM18.433 30.115c7.813-0.938 13.384-8.035 12.442-15.847s-8.043-13.379-15.854-12.432c-7.805 0.947-13.366 8.039-12.424 15.844 0.942 7.806 8.030 13.371 15.836 12.434z"></path>
<path d="M22.961 7.685l1.831-0.013c0.036 5.283 0.038 10.567 0.008 15.851l-1.893 0.024-0.003-9.927-0.009-2.718c-1.057 2.007-2.258 3.936-3.401 5.893-0.725 1.241-1.398 2.665-2.295 3.781-0.214 0.078-0.446 0.084-0.669 0.033-0.073-0.017-0.225-0.074-0.281-0.118-0.484-0.386-5.034-8.379-5.76-9.591 0.187 1.437 0.069 3.006 0.068 4.456l-0.005 8.152-1.936 0.007c0.060-5.275-0.035-10.553 0.016-15.83l2.108 0.011c0.937 1.676 1.943 3.316 2.915 4.973 1.033 1.76 2.039 3.541 3.136 5.262 1.116-2.039 2.365-4.015 3.565-6.006 0.85-1.41 1.654-2.896 2.606-4.239z"></path>
<path d="M119.883 11.45c0.374-0.025 0.757-0.035 1.132-0.028 1.395 0.025 2.821 0.771 3.776 1.76 1.19 1.233 1.744 2.952 1.703 4.648-0.040 1.726-0.687 3.366-1.957 4.55-1.126 1.049-2.569 1.61-4.112 1.552-1.766-0.066-2.938-0.811-4.123-2.075-0.046 0.724-0.032 1.456-0.039 2.182 0.008 1.441 0.006 2.881-0.005 4.323-0.672 0.066-1.35 0.060-2.021-0.019 0.11-2.231 0.013-4.515 0.014-6.752 0-3.327 0.053-6.663-0.022-9.989l1.999-0.008c-0.039 0.742-0.030 1.492-0.041 2.236 1.083-1.351 1.987-2.003 3.696-2.379zM120.749 22.148c1.243-0.233 2.205-0.74 2.935-1.812 0.713-1.067 0.969-2.376 0.71-3.633-0.222-1.12-0.886-2.179-1.862-2.791-0.768-0.482-1.599-0.614-2.486-0.589-1.232 0.233-2.23 0.671-2.969 1.745-0.696 1.011-0.995 2.451-0.76 3.654 0.223 1.155 0.907 2.169 1.896 2.805 0.789 0.496 1.621 0.639 2.535 0.623z"></path>
<path d="M82.587 6.437c0.326 0.335 0.427 1.218 0.621 1.691-2.097 0.88-5.138 0.699-6.825 2.31-1.009 0.964-1.249 2.296-1.271 3.624 0.902-1.115 1.891-2.018 3.371-2.265 1.495-0.25 3.080 0.039 4.306 0.952 1.317 0.981 2.051 2.402 2.271 4.013 0.253 1.851-0.208 3.596-1.344 5.074-0.822 0.913-1.779 1.587-2.984 1.882-1.526 0.374-3.268 0.18-4.612-0.654-1.533-0.953-2.416-2.524-2.799-4.253-0.572-2.584-0.459-6.445 1.030-8.739 1.313-2.023 3.297-2.424 5.5-2.948 0.915-0.218 1.818-0.485 2.735-0.688zM79.1 22.158c1.299-0.192 2.265-0.503 3.072-1.619 0.792-1.094 1.048-2.475 0.802-3.79-0.198-1.061-0.757-2.032-1.668-2.632-0.558-0.369-1.205-0.58-1.874-0.612-1.264 0.141-2.303 0.403-3.144 1.445-0.789 0.979-1.127 2.3-0.953 3.54 0.159 1.131 0.777 2.22 1.706 2.894 0.628 0.456 1.303 0.656 2.058 0.773z"></path>
<path d="M54.169 7.242c0.738-0.074 1.507-0.039 2.249-0.044-0.1 5.436 0.019 10.889-0.012 16.328l-1.958-0.020 0.003-9.617c-0.005-1.102-0.028-2.206 0.039-3.306-1.804 3.332-3.432 6.811-5.408 10.042l-1.272-0.007c-1.947-3.191-3.566-6.63-5.366-9.909 0.070 1.504 0.023 3.031 0.024 4.537l0.004 8.281c-0.653-0.017-1.303 0.026-1.956-0.005l0.001-9.906c0.001-2.129-0.040-4.272 0.076-6.399l2.178 0.001c0.619 1.062 1.145 2.199 1.708 3.293 1.305 2.537 2.597 5.101 4.005 7.582 2.069-3.508 3.707-7.287 5.685-10.851z"></path>
<path d="M64.238 11.454c0.299-0.016 0.598-0.027 0.897-0.034 1.567-0.026 3.129 0.402 4.259 1.538 1.512 1.519 1.662 3.434 1.662 5.457-3.263 0.042-6.53-0.003-9.793 0.012 0.101 0.538 0.202 1.054 0.458 1.545 0.51 0.983 1.395 1.719 2.455 2.040 1.269 0.384 2.545 0.159 3.686-0.47 0.383-0.26 0.733-0.565 1.089-0.859 0.512 0.293 1.030 0.537 1.572 0.771-0.805 1.086-1.843 1.878-3.157 2.238-1.682 0.46-3.732 0.28-5.247-0.612-1.328-0.783-2.282-2.073-2.64-3.572-0.448-1.803-0.198-3.775 0.781-5.361 0.943-1.529 2.266-2.284 3.978-2.693zM61.285 16.891c1.616-0.013 3.232-0.018 4.848-0.014l3.021 0.002c-0.295-1.24-0.59-2.389-1.743-3.115-0.844-0.531-1.868-0.612-2.839-0.531-1.049 0.242-1.933 0.72-2.532 1.644-0.405 0.626-0.585 1.299-0.755 2.013z"></path>
<path d="M104.826 11.45c0.293-0.015 0.586-0.024 0.88-0.029 1.563-0.017 3.125 0.447 4.241 1.588 1.467 1.501 1.603 3.417 1.596 5.399-3.249 0.049-6.506 0.010-9.756 0.018 0.043 0.593 0.147 1.103 0.424 1.636 0.512 0.987 1.362 1.641 2.423 1.951 1.418 0.417 2.709 0.109 3.963-0.587 0.305-0.211 0.578-0.469 0.856-0.715 0.516 0.277 1.038 0.502 1.581 0.718-0.85 1.117-1.907 1.927-3.28 2.274-1.707 0.433-3.667 0.267-5.19-0.652-1.352-0.816-2.279-2.162-2.635-3.695-0.405-1.75-0.123-3.763 0.856-5.281s2.316-2.251 4.041-2.625zM101.769 16.887c1.548-0.004 3.097-0.026 4.644-0.009l3.279-0.002c-0.34-1.275-0.697-2.517-1.93-3.218-0.763-0.435-1.694-0.509-2.556-0.422-1.023 0.169-1.888 0.554-2.523 1.41-0.504 0.677-0.718 1.434-0.912 2.241z"></path>
<path d="M138.568 11.622c1.979-0.093 3.987-0.025 5.97-0.019-0.101 3.963-0.011 7.952-0.013 11.918l-2.039-0.022-0.002-4.071c-0.974-0.006-2.256-0.196-3.185 0.025-0.29 0.069-0.342 0.215-0.504 0.441-0.688 1.22-1.454 2.398-2.145 3.62-0.77 0.017-1.542 0.020-2.312 0.006 0.754-1.416 1.778-3.218 2.777-4.445-0.119-0.058-0.236-0.119-0.352-0.182-0.87-0.481-1.537-1.254-1.792-2.223-0.265-1.011-0.121-2.164 0.421-3.062 0.729-1.211 1.87-1.676 3.176-1.984zM140.659 17.719c0.602-0.005 1.216 0.014 1.817-0.030-0.008-1.409-0.005-2.819 0.011-4.228-1.196-0.004-2.408-0.036-3.602 0.029-0.753 0.236-1.342 0.491-1.748 1.217-0.27 0.483-0.342 1.12-0.16 1.644 0.176 0.508 0.583 0.864 1.063 1.081 0.809 0.366 1.752 0.294 2.619 0.287z"></path>
<path d="M89.201 11.731c2.582-0.093 5.186-0.033 7.772-0.037l-0.013 11.825c-0.644-0.009-1.29-0.037-1.928 0.051l-0.010-10.017-1.095 0.044c-0.977-0.048-1.978 0.016-2.957 0.039-0.027 2.384-0.037 7.325-1.706 9.089-0.833 0.879-1.773 0.97-2.91 0.979-0.008-0.622-0.042-1.236-0.087-1.856 0.297-0.027 0.612-0.048 0.901-0.121 1.797-0.453 1.829-6.392 1.874-7.889 0.018-0.584-0.111-1.633 0.161-2.108z"></path>
<path d="M131.083 11.644l0.264-0.016c0.031 0.043 0.077 0.079 0.096 0.129 0.089 0.233-0.003 10.563-0.002 11.757l-1.732 0.012-0.127-0.026c-0.278-0.501 0.001-10.345-0.086-11.833 0.528 0.007 1.058-0.011 1.586-0.024z"></path>
<path d="M129.46 7.185l1.991-0.006c-0.021 0.707-0.005 1.414 0.006 2.121l-2.051 0.015c0.030-0.71 0.048-1.42 0.054-2.131z"></path>
</symbol> -->
        <symbol id="icon-burger-menu" viewBox="0 0 32 32">
            <path d="M5.333 5.44h21.333v2.667h-21.333z"></path>
            <path d="M5.333 14.667h21.333v2.667h-21.333z"></path>
            <path d="M5.333 23.893h21.333v2.667h-21.333z"></path>
        </symbol>
    </defs>
</svg>